<svg width="23" height="24" viewBox="0 0 23 24" fill="none" xmlns="http://www.w3.org/2000/svg">
<path fill-rule="evenodd" clip-rule="evenodd" d="M11.3181 0.818115C5.11744 0.818115 0.0908203 5.84474 0.0908203 12.0454C0.0908203 18.246 5.11744 23.2727 11.3181 23.2727C17.5187 23.2727 22.5454 18.246 22.5454 12.0454C22.5454 5.84474 17.5187 0.818115 11.3181 0.818115ZM12.9435 5.97949H9.81847L10.3393 13.6576H12.4226L12.9435 5.97949ZM10.2217 17.4378C10.5353 17.729 10.9217 17.8746 11.381 17.8746C11.8402 17.8746 12.221 17.729 12.5234 17.4378C12.8371 17.1354 12.9939 16.7713 12.9939 16.3457C12.9939 15.9201 12.8427 15.5673 12.5402 15.2873C12.2378 14.996 11.8514 14.8504 11.381 14.8504C10.9105 14.8504 10.5241 14.996 10.2217 15.2873C9.91928 15.5673 9.76807 15.9201 9.76807 16.3457C9.76807 16.7713 9.91928 17.1354 10.2217 17.4378Z" fill="white"/>
</svg>
