<svg width="33" height="32" viewBox="0 0 33 32" fill="none" xmlns="http://www.w3.org/2000/svg">
<path fill-rule="evenodd" clip-rule="evenodd" d="M10 0C4.47715 0 0 4.47715 0 10V22C0 27.5228 4.47715 32 10 32H23C28.5228 32 33 27.5228 33 22V10C33 4.47715 28.5228 0 23 0H10ZM14.4721 16.6801C14.2961 17.1121 14.2081 17.6081 14.2081 18.1681H17.8321C17.8321 17.7361 17.9281 17.3601 18.1201 17.0401C18.3281 16.7201 18.5841 16.4161 18.8881 16.1281C19.1921 15.8401 19.5121 15.5441 19.8481 15.2401C20.2001 14.9361 20.5281 14.6081 20.8321 14.2561C21.1361 13.9041 21.3841 13.4881 21.5761 13.0081C21.7681 12.5281 21.8641 11.9761 21.8641 11.3521C21.8641 10.3921 21.6001 9.58411 21.0721 8.92811C20.5601 8.27211 19.8481 7.77611 18.9361 7.44011C18.0241 7.08811 16.9681 6.91211 15.7681 6.91211C14.1521 6.91211 12.7761 7.20811 11.6401 7.80011C10.5041 8.37611 9.61607 9.15211 8.97607 10.1281L11.8801 11.8321C12.2641 11.2721 12.7521 10.8401 13.3441 10.5361C13.9361 10.2161 14.6081 10.0561 15.3601 10.0561C16.1441 10.0561 16.7681 10.2321 17.2321 10.5841C17.7121 10.9361 17.9521 11.4001 17.9521 11.9761C17.9521 12.3281 17.8561 12.6481 17.6641 12.9361C17.4881 13.2241 17.2561 13.5041 16.9681 13.7761C16.6961 14.0321 16.4001 14.3041 16.0801 14.5921C15.7601 14.8801 15.4561 15.1921 15.1681 15.5281C14.8961 15.8641 14.6641 16.2481 14.4721 16.6801ZM14.3761 23.5441C14.8081 23.9761 15.3601 24.1921 16.0321 24.1921C16.7201 24.1921 17.2721 23.9761 17.6881 23.5441C18.1201 23.1121 18.3361 22.6001 18.3361 22.0081C18.3361 21.4001 18.1201 20.8961 17.6881 20.4961C17.2721 20.0801 16.7201 19.8721 16.0321 19.8721C15.3601 19.8721 14.8081 20.0801 14.3761 20.4961C13.9441 20.8961 13.7281 21.4001 13.7281 22.0081C13.7281 22.6001 13.9441 23.1121 14.3761 23.5441Z" fill="#D9D9D9"/>
</svg>
